<svg xmlns="http://www.w3.org/2000/svg" viewBox="0 0 267 246"><defs><style>.cls-1{fill:#fff;}.cls-2{fill:none;}</style></defs><g id="Capa_2" data-name="Capa 2"><g id="Capa_1-2" data-name="Capa 1"><path class="cls-1" d="M66.46,166.07q-2.64,0-2.64-4.41v-1.49q0-4.41,2.64-4.41H78.18V116.22L66.2,118a1.93,1.93,0,0,1-1.76-1.32,10.4,10.4,0,0,1-.84-3.09,24,24,0,0,1-.22-3c0-1.35.76-2.17,2.29-2.47l21.93-4a5.19,5.19,0,0,1,2.34.66c.85.44,1.27.93,1.27,1.46v49.58h8.55q2.64,0,2.64,4.41v1.49q0,4.41-2.64,4.41Z"/><path class="cls-1" d="M129.79,166.77A17.37,17.37,0,0,1,118.6,163a23.53,23.53,0,0,1-7.17-10.84,50.71,50.71,0,0,1-2.51-16.95,50.74,50.74,0,0,1,2.51-17,23.52,23.52,0,0,1,7.17-10.79,18.6,18.6,0,0,1,22.37,0,23.46,23.46,0,0,1,7.18,10.79,50.74,50.74,0,0,1,2.51,17,50.71,50.71,0,0,1-2.51,16.95A23.47,23.47,0,0,1,141,163,17.34,17.34,0,0,1,129.79,166.77Zm0-10.3a5.05,5.05,0,0,0,4.18-2.38,18,18,0,0,0,2.6-7.14,65.4,65.4,0,0,0,.88-11.71,65.3,65.3,0,0,0-.88-11.76,17.87,17.87,0,0,0-2.6-7.09,4.86,4.86,0,0,0-8.36,0,17.71,17.71,0,0,0-2.6,7.09,65.3,65.3,0,0,0-.88,11.76A65.4,65.4,0,0,0,123,147a17.8,17.8,0,0,0,2.6,7.14A5,5,0,0,0,129.79,156.47Z"/><path class="cls-1" d="M176.91,166.77A17.35,17.35,0,0,1,165.72,163a23.62,23.62,0,0,1-7.18-10.84,51,51,0,0,1-2.5-16.95,51,51,0,0,1,2.5-17,23.61,23.61,0,0,1,7.18-10.79,18.6,18.6,0,0,1,22.37,0,23.46,23.46,0,0,1,7.18,10.79,50.74,50.74,0,0,1,2.51,17,50.71,50.71,0,0,1-2.51,16.95A23.47,23.47,0,0,1,188.09,163,17.34,17.34,0,0,1,176.91,166.77Zm0-10.3a5.05,5.05,0,0,0,4.18-2.38,18,18,0,0,0,2.6-7.14,65.4,65.4,0,0,0,.88-11.71,65.3,65.3,0,0,0-.88-11.76,17.87,17.87,0,0,0-2.6-7.09,4.87,4.87,0,0,0-8.37,0,17.88,17.88,0,0,0-2.59,7.09,65.3,65.3,0,0,0-.88,11.76,65.4,65.4,0,0,0,.88,11.71,18,18,0,0,0,2.59,7.14A5.07,5.07,0,0,0,176.91,156.47Z"/><path class="cls-1" d="M52.05,206a1.24,1.24,0,0,1-1.4-1.4V182.87a1.24,1.24,0,0,1,1.4-1.41H59c3,0,5.08.58,6.36,1.72a5.74,5.74,0,0,1,1.9,4.48,5.06,5.06,0,0,1-.5,2.24,6.19,6.19,0,0,1-1.37,1.84A6.82,6.82,0,0,1,63.46,193l0,.14a5.8,5.8,0,0,1,1.56.56,6.75,6.75,0,0,1,1.31.93,5.29,5.29,0,0,1,1,1.22,6.32,6.32,0,0,1,.63,1.46,5.51,5.51,0,0,1,.22,1.57,6.55,6.55,0,0,1-2.15,5.25c-1.43,1.24-3.63,1.85-6.6,1.85Zm4-14.73h2.42a3.45,3.45,0,0,0,2.41-.77,2.42,2.42,0,0,0,.84-1.86,2.38,2.38,0,0,0-.78-1.94,3.76,3.76,0,0,0-2.4-.65H56Zm0,10.15h3.43a3.5,3.5,0,0,0,2.38-.74,2.61,2.61,0,0,0,.84-2.1,2.3,2.3,0,0,0-1-2,4.8,4.8,0,0,0-2.8-.69H56Z"/><path class="cls-1" d="M81.56,206.25c-3.59,0-6.37-1.08-8.31-3.24s-2.93-5.26-2.93-9.3,1-7.13,2.93-9.29,4.72-3.24,8.31-3.24,6.39,1.08,8.31,3.24,2.89,5.26,2.89,9.29-1,7.14-2.89,9.3S85.18,206.25,81.56,206.25Zm0-4.59a4.81,4.81,0,0,0,4.23-2,12.77,12.77,0,0,0,0-11.78,5.44,5.44,0,0,0-8.48,0,12.61,12.61,0,0,0,0,11.78A4.86,4.86,0,0,0,81.56,201.66Z"/><path class="cls-1" d="M108.58,200.12a1.64,1.64,0,0,1-1.4-.66l-4.31-7.71-.4-.68c-.13-.22-.25-.45-.37-.68l-.14,0v14.5c0,.74-.7,1.12-2.1,1.12h-1c-1.4,0-2.1-.38-2.1-1.12V182.51c0-.74.7-1.12,2.1-1.12h1.85a3.91,3.91,0,0,1,1.35.21,1.57,1.57,0,0,1,.86.74l5.81,10.36a2.09,2.09,0,0,0,.17.28,1.57,1.57,0,0,1,.18.31,2.25,2.25,0,0,1,.16-.31c0-.09.11-.19.15-.28l5.92-10.36a1.57,1.57,0,0,1,.86-.74,3.89,3.89,0,0,1,1.34-.21h1.82c1.4,0,2.1.38,2.1,1.12v22.41c0,.74-.7,1.12-2.1,1.12h-1c-1.4,0-2.1-.38-2.1-1.12v-14.5l-.14,0c-.12.23-.24.46-.37.68l-.4.68L111,199.46a1.63,1.63,0,0,1-1.4.66Z"/><path class="cls-1" d="M127.9,206a1.23,1.23,0,0,1-1.4-1.4V182.87a1.24,1.24,0,0,1,1.4-1.41h6.93c3,0,5.08.58,6.35,1.72a5.75,5.75,0,0,1,1.91,4.48,5.07,5.07,0,0,1-.51,2.24,6.16,6.16,0,0,1-1.36,1.84,7,7,0,0,1-1.91,1.24l0,.14a5.8,5.8,0,0,1,1.56.56,6.46,6.46,0,0,1,1.31.93,5.29,5.29,0,0,1,1,1.22,6.32,6.32,0,0,1,.63,1.46,5.52,5.52,0,0,1,.23,1.57,6.58,6.58,0,0,1-2.15,5.25c-1.44,1.24-3.64,1.85-6.6,1.85Zm4-14.73h2.41a3.48,3.48,0,0,0,2.42-.77,2.42,2.42,0,0,0,.84-1.86,2.35,2.35,0,0,0-.79-1.94,3.72,3.72,0,0,0-2.4-.65h-2.48Zm0,10.15h3.43a3.51,3.51,0,0,0,2.38-.74,2.61,2.61,0,0,0,.84-2.1,2.32,2.32,0,0,0-1-2,4.85,4.85,0,0,0-2.8-.69h-2.87Z"/><path class="cls-1" d="M148.69,206a1.23,1.23,0,0,1-1.4-1.4V182.87a1.24,1.24,0,0,1,1.4-1.41H161c.7,0,1.05.59,1.05,1.75v1.09c0,1.17-.35,1.75-1.05,1.75h-8.29v5.07H160c.7,0,1.05.59,1.05,1.76V194c0,1.17-.35,1.75-1.05,1.75h-7.35v5.67H161c.7,0,1.05.58,1.05,1.75v1.08c0,1.17-.35,1.75-1.05,1.75Z"/><path class="cls-1" d="M168.22,206c-1.4,0-2.1-.38-2.1-1.12v-22a1.24,1.24,0,0,1,1.4-1.41h6.82c3,0,5.25.58,6.63,1.72a6,6,0,0,1,2.09,4.86,5.31,5.31,0,0,1-1.14,3.45,6.89,6.89,0,0,1-3,2.12v.14a3.22,3.22,0,0,1,1.37,1.17,9.1,9.1,0,0,1,1.15,2.05l3.08,7.7a2.11,2.11,0,0,1,.18.66c0,.47-.7.71-2.1.71H181.2a4.94,4.94,0,0,1-1.31-.16,1.06,1.06,0,0,1-.72-.58l-2.76-6.83a4.58,4.58,0,0,0-1.18-1.57,3.89,3.89,0,0,0-2.36-.52h-1.36v8.54c0,.74-.7,1.12-2.1,1.12Zm3.29-14.32h3.32a2.4,2.4,0,0,0,1.35-.4,2.87,2.87,0,0,0,1-1.09,3.19,3.19,0,0,0,.37-1.52,2.51,2.51,0,0,0-.79-1.94,3.07,3.07,0,0,0-2.15-.72h-3.08Z"/><path class="cls-1" d="M197.51,206.25q-5.38,0-8.31-3.24t-2.92-9.3q0-6,2.92-9.29t8.31-3.24q5.43,0,8.31,3.24t2.89,9.29q0,6.06-2.89,9.3T197.51,206.25Zm0-4.59a4.84,4.84,0,0,0,4.24-2,12.85,12.85,0,0,0,0-11.78,5.45,5.45,0,0,0-8.49,0,12.69,12.69,0,0,0,0,11.78A4.88,4.88,0,0,0,197.51,201.66Z"/><path class="cls-1" d="M219.28,206.25a15.92,15.92,0,0,1-4.48-.55,9.82,9.82,0,0,1-2.76-1.2c-.66-.45-1-.89-1-1.33a2.83,2.83,0,0,1,.38-1.28,6,6,0,0,1,.91-1.28c.35-.37.64-.56.88-.56a.89.89,0,0,1,.4.12l.58.3c.46.23,1,.49,1.73.77a6.44,6.44,0,0,0,2.43.42,6,6,0,0,0,1.52-.19,2.51,2.51,0,0,0,1.26-.74,2.13,2.13,0,0,0,.51-1.52,2,2,0,0,0-.8-1.68,8.35,8.35,0,0,0-2.05-1.12c-.83-.33-1.68-.7-2.54-1.12a11.76,11.76,0,0,1-1.75-1,7.6,7.6,0,0,1-1.52-1.38,5.86,5.86,0,0,1-1.07-1.94,8.46,8.46,0,0,1-.38-2.72,6.44,6.44,0,0,1,1.22-4.07,7.1,7.1,0,0,1,3.13-2.28,11.12,11.12,0,0,1,3.94-.72,13.71,13.71,0,0,1,2.31.18,10.62,10.62,0,0,1,1.87.47,5.65,5.65,0,0,1,1.35.68c.51.38.77.75.77,1.12a3.41,3.41,0,0,1-.3,1.2,4.7,4.7,0,0,1-.75,1.29,1.22,1.22,0,0,1-.87.56,1.28,1.28,0,0,1-.48-.14c-.19-.09-.46-.2-.78-.32a7.06,7.06,0,0,0-1.11-.29,8.28,8.28,0,0,0-1.52-.13,5.18,5.18,0,0,0-2.06.32,2,2,0,0,0-1,.77,1.85,1.85,0,0,0-.24.87,2.32,2.32,0,0,0,.52,1.56,4.15,4.15,0,0,0,1.37,1c.56.28,1.18.57,1.85.85s1.46.63,2.21,1a9.63,9.63,0,0,1,2.06,1.35,5.89,5.89,0,0,1,1.52,2,7,7,0,0,1,.58,3,8.56,8.56,0,0,1-.68,3.6,6.29,6.29,0,0,1-1.84,2.37,7.68,7.68,0,0,1-2.55,1.29A10.21,10.21,0,0,1,219.28,206.25Z"/><path class="cls-1" d="M151.45,85.63A8.3,8.3,0,0,1,144,76.37h0a4.76,4.76,0,0,1,.44-2,1.34,1.34,0,0,1,.9-.89,1.13,1.13,0,0,1,1.2.15,3.88,3.88,0,0,0,4.78-.6,4,4,0,0,0,1-3.14v-.6a13,13,0,0,1,.45-4.78,1.39,1.39,0,0,1,2.69,0,5.43,5.43,0,0,0,.6,1.34,23.62,23.62,0,0,0,2.24,4,18.76,18.76,0,0,1,1.94,3.88,8,8,0,0,1,.6,4.19v.3h0A8.8,8.8,0,0,1,151.45,85.63Zm-4.07-8.92a5.27,5.27,0,0,0,5.25,5.4,5.61,5.61,0,0,0,5.4-4.4v-.29a4.07,4.07,0,0,0-.43-2.55h0l-.14-.14a13.93,13.93,0,0,0-1.7-3.27l-.43-.85a6.15,6.15,0,0,1-1.85,4.26,5.61,5.61,0,0,1-6.1,1.84Z"/><path class="cls-1" d="M171,61a69.28,69.28,0,0,0-5.54-8.81c-1.84-2.55-3.69-5.11-5.53-8.23-3.56-5.83-2.7-10.94-1.28-14.06a1,1,0,0,0-.29-1.28,1,1,0,0,0-1.13-.14c-5.26,2.69-9.09,6-11.08,13.35A28.27,28.27,0,0,0,146,54.7,4,4,0,0,1,146.1,56a6.19,6.19,0,0,1-1,4.4A4.52,4.52,0,0,1,142,62.23,4.73,4.73,0,0,1,138.15,61a5.61,5.61,0,0,1-1.42-4.12,18.62,18.62,0,0,1,.42-3.69.86.86,0,0,0-.57-1,.85.85,0,0,0-1.13.43,49.41,49.41,0,0,0-5,11.5c-.29.86-.57,1.85-.86,2.84v.43a21.66,21.66,0,0,0-.42,4.12,22.23,22.23,0,0,0,44.45,1v-.14h0v-.85A23.06,23.06,0,0,0,171,61Zm-1.56,10.43v1a19.32,19.32,0,0,1-38.63-.87,31.16,31.16,0,0,1,.28-3.6v.89a13.35,13.35,0,0,1,.76-2.55c.3-.76.45-1.36.75-2.11L133,62.6l1.05,1.21.31.3a8.43,8.43,0,0,0,6.92,2.41,8.7,8.7,0,0,0,5.57-3.31A9.24,9.24,0,0,0,148.5,56c0-.45-.15-.9-.15-1.5-.45-3.31-1.2-7.53.15-12.34a18.66,18.66,0,0,1,3.76-7.53L153.77,33v3.92a19.3,19.3,0,0,0,2.85,9.1c1.9,3.13,3.81,5.71,5.44,8a48.28,48.28,0,0,1,5,8l.14.14a18.71,18.71,0,0,1,2.17,8.69Z"/><rect class="cls-2" width="267" height="246"/></g></g></svg>