<svg xmlns="http://www.w3.org/2000/svg" viewBox="0 0 267 246"><defs><style>.cls-1{fill:#fff;}.cls-2{fill:none;}</style></defs><g id="Capa_2" data-name="Capa 2"><g id="Capa_1-2" data-name="Capa 1"><path class="cls-1" d="M65.58,157.38c-1.76,0-2.64-1.46-2.64-4.4v-1.5q0-4.39,2.64-4.4H77.29V107.53l-12,1.77A1.92,1.92,0,0,1,63.55,108a10,10,0,0,1-.83-3.08,24,24,0,0,1-.22-3c0-1.35.76-2.17,2.29-2.47l21.93-4.05a5.15,5.15,0,0,1,2.33.66c.85.44,1.28.93,1.28,1.45v49.59h8.54q2.64,0,2.64,4.4V153c0,2.94-.88,4.4-2.64,4.4Z"/><path class="cls-1" d="M128.9,158.09a17.34,17.34,0,0,1-11.18-3.74,23.47,23.47,0,0,1-7.18-10.84A51,51,0,0,1,108,126.56a51,51,0,0,1,2.51-17,23.46,23.46,0,0,1,7.18-10.79,18.6,18.6,0,0,1,22.37,0,23.61,23.61,0,0,1,7.18,10.79,51,51,0,0,1,2.51,17,51,51,0,0,1-2.51,16.95,23.62,23.62,0,0,1-7.18,10.84A17.35,17.35,0,0,1,128.9,158.09Zm0-10.31a5.06,5.06,0,0,0,4.19-2.37,18,18,0,0,0,2.59-7.14,65.29,65.29,0,0,0,.89-11.71,65.19,65.19,0,0,0-.89-11.76,17.88,17.88,0,0,0-2.59-7.09,4.87,4.87,0,0,0-8.37,0,17.87,17.87,0,0,0-2.6,7.09,65.3,65.3,0,0,0-.88,11.76,65.4,65.4,0,0,0,.88,11.71,18,18,0,0,0,2.6,7.14A5,5,0,0,0,128.9,147.78Z"/><path class="cls-1" d="M174.7,158.09a55.27,55.27,0,0,1-5.72-.35,39.87,39.87,0,0,1-6.3-1.19,16.51,16.51,0,0,1-5.07-2.25,4.1,4.1,0,0,1-2-3.43,7,7,0,0,1,.66-2.47,13,13,0,0,1,1.67-2.9,2.72,2.72,0,0,1,2-1.33,6.07,6.07,0,0,1,2.43.88,30.48,30.48,0,0,0,4.22,1.81,18.24,18.24,0,0,0,6.12.92,9.67,9.67,0,0,0,4.58-1,7.33,7.33,0,0,0,3-2.9,9,9,0,0,0,1.1-4.63q0-4.4-2.37-6.69t-7.93-2.29h-2.47q-2.64,0-2.64-4.41v-1.58c0-2.94.88-4.4,2.64-4.4h1.68a11.79,11.79,0,0,0,4.93-.93,7.07,7.07,0,0,0,3.08-2.55,6.87,6.87,0,0,0,1.06-3.84,8.47,8.47,0,0,0-.79-3.78,5.73,5.73,0,0,0-2.38-2.47,8.07,8.07,0,0,0-4-.88,17.32,17.32,0,0,0-5.32.66,15.06,15.06,0,0,0-3.13,1.37,3.89,3.89,0,0,1-1.94.7A2.71,2.71,0,0,1,160,107a12,12,0,0,1-1.76-2.77,6.63,6.63,0,0,1-.75-2.73,3.64,3.64,0,0,1,1.41-2.87,11.43,11.43,0,0,1,3.83-2,30.39,30.39,0,0,1,5.5-1.19,50.55,50.55,0,0,1,6.34-.39q8.28,0,13.17,4.18a15.36,15.36,0,0,1,2.69,19.16,13.07,13.07,0,0,1-6,4.93v.35a15.29,15.29,0,0,1,5.77,3.66,14.85,14.85,0,0,1,3.34,5.41,19.66,19.66,0,0,1,1.11,6.7,20,20,0,0,1-1.46,7.84,16.57,16.57,0,0,1-4.09,5.85,17.83,17.83,0,0,1-6.3,3.7A24.33,24.33,0,0,1,174.7,158.09Z"/><path class="cls-1" d="M67.52,196.23a1.24,1.24,0,0,1-1.4-1.4v-21.7a1.24,1.24,0,0,1,1.4-1.4H75a12.3,12.3,0,0,1,6.11,1.42,9.13,9.13,0,0,1,3.8,4.15A15.57,15.57,0,0,1,86.21,184a17,17,0,0,1-.74,5.25,9.91,9.91,0,0,1-2.17,3.83,9.17,9.17,0,0,1-3.51,2.37,13.34,13.34,0,0,1-4.78.8Zm4-4.58H75a5.35,5.35,0,0,0,3.15-.88,5.19,5.19,0,0,0,1.89-2.59,14.32,14.32,0,0,0,0-8.4,5.28,5.28,0,0,0-1.89-2.59,5.42,5.42,0,0,0-3.15-.87H71.54Z"/><path class="cls-1" d="M91.88,196.23a1.24,1.24,0,0,1-1.4-1.4v-21.7a1.24,1.24,0,0,1,1.4-1.4h12.29c.7,0,1,.59,1,1.75v1.09c0,1.16-.34,1.75-1,1.75h-8.3v5.07h7.35c.7,0,1,.59,1,1.75v1.09c0,1.16-.35,1.75-1,1.75H95.87v5.67h8.33c.7,0,1,.58,1,1.75v1.08c0,1.17-.35,1.75-1,1.75Z"/><path class="cls-1" d="M111.65,196.3c-1.4,0-2.1-.37-2.1-1.12V173.13a1.24,1.24,0,0,1,1.4-1.4h11.52c.7,0,1,.59,1,1.75v1.09c0,1.16-.35,1.75-1,1.75h-7.53v6.16h7.28c.7,0,1,.58,1,1.75v1.08c0,1.17-.35,1.75-1,1.75h-7.28v8.12c0,.75-.7,1.12-2.1,1.12Z"/><path class="cls-1" d="M128.59,196.23a1.24,1.24,0,0,1-1.4-1.4v-21.7a1.24,1.24,0,0,1,1.4-1.4h12.29c.7,0,1.05.59,1.05,1.75v1.09c0,1.16-.35,1.75-1.05,1.75h-8.3v5.07h7.35c.7,0,1,.59,1,1.75v1.09c0,1.16-.35,1.75-1,1.75h-7.35v5.67h8.33c.7,0,1.05.58,1.05,1.75v1.08c0,1.17-.35,1.75-1.05,1.75Z"/><path class="cls-1" d="M148.12,196.3c-1.4,0-2.1-.37-2.1-1.12v-22.4c0-.74.7-1.12,2.1-1.12h1.51a4.6,4.6,0,0,1,1.35.18,1.73,1.73,0,0,1,1,.77l7.87,12.14q.39.52.69,1c.19.32.39.67.57,1l.14,0c0-.39,0-.76-.05-1.1s0-.76,0-1.28V172.78c0-.74.7-1.12,2.1-1.12h1c1.4,0,2.1.38,2.1,1.12v22.4c0,.75-.7,1.12-2.1,1.12h-1.33a5,5,0,0,1-1.35-.17,1.82,1.82,0,0,1-1-.77L152.57,183c-.24-.35-.46-.69-.67-1a10.33,10.33,0,0,1-.59-1.05l-.14,0a11,11,0,0,1,.07,1.1v13.07c0,.75-.7,1.12-2.1,1.12Z"/><path class="cls-1" d="M177.77,196.51a16,16,0,0,1-4.48-.54,9.59,9.59,0,0,1-2.77-1.21c-.65-.44-1-.88-1-1.33a2.7,2.7,0,0,1,.39-1.27,5.69,5.69,0,0,1,.91-1.28c.35-.38.64-.56.87-.56a.93.93,0,0,1,.41.12l.57.3c.47.23,1.05.49,1.74.77a6.37,6.37,0,0,0,2.43.42,6.52,6.52,0,0,0,1.52-.19,2.6,2.6,0,0,0,1.26-.74,2.13,2.13,0,0,0,.51-1.52,2,2,0,0,0-.81-1.68,8,8,0,0,0-2-1.12c-.83-.33-1.68-.7-2.54-1.12a11.28,11.28,0,0,1-1.75-1,7.94,7.94,0,0,1-1.52-1.38,5.78,5.78,0,0,1-1.07-1.94,8.45,8.45,0,0,1-.39-2.72,6.35,6.35,0,0,1,1.23-4.07,7.1,7.1,0,0,1,3.13-2.28,11,11,0,0,1,3.94-.72,13.71,13.71,0,0,1,2.31.18,10,10,0,0,1,1.87.47,5.65,5.65,0,0,1,1.35.68c.51.38.77.75.77,1.12a3.32,3.32,0,0,1-.3,1.19,5.33,5.33,0,0,1-.75,1.3,1.23,1.23,0,0,1-.88.56,1.3,1.3,0,0,1-.47-.14,7.9,7.9,0,0,0-.79-.32,6.91,6.91,0,0,0-1.1-.29,7.55,7.55,0,0,0-1.52-.13,5.27,5.27,0,0,0-2.07.32,1.87,1.87,0,0,0-.94.77,1.75,1.75,0,0,0-.25.87,2.32,2.32,0,0,0,.53,1.56,4.25,4.25,0,0,0,1.36,1q.84.42,1.86.84c.72.31,1.46.64,2.2,1a9.45,9.45,0,0,1,2.07,1.35,5.8,5.8,0,0,1,1.52,2,6.94,6.94,0,0,1,.58,3,8.6,8.6,0,0,1-.68,3.6,6.25,6.25,0,0,1-1.84,2.36,7.47,7.47,0,0,1-2.56,1.3A10.13,10.13,0,0,1,177.77,196.51Z"/><path class="cls-1" d="M188.41,196.3c-1.42,0-2.14-.25-2.14-.77a.79.79,0,0,1,.06-.29,3.38,3.38,0,0,0,.08-.34l7.7-22.5c.19-.49.85-.74,2-.74h1.82c1.16,0,1.83.25,2,.74l7.7,22.5a2.32,2.32,0,0,1,.11.63c0,.52-.59.77-1.75.77h-1.54a4.39,4.39,0,0,1-1.3-.16.88.88,0,0,1-.66-.57l-1.4-4.27h-8.26l-1.4,4.27a1,1,0,0,1-.56.56,2.88,2.88,0,0,1-1.05.17Zm5.91-9.62h5.25l-2-6.23c-.12-.38-.22-.75-.3-1.12s-.16-.75-.23-1.12h-.14l-.21,1.12a7,7,0,0,1-.31,1.12Z"/><path class="cls-1" d="M108.68,227.51q-5.88,0-8.7-3.06t-2.81-9.54q0-12.45,11.68-12.46a18.62,18.62,0,0,1,4.62.61,7.23,7.23,0,0,1,1.79.72c.61.35.91.73.91,1.12a3.17,3.17,0,0,1-.38,1.28,7,7,0,0,1-.91,1.4,1.42,1.42,0,0,1-1,.61,2.2,2.2,0,0,1-.78-.28,10.69,10.69,0,0,0-1.63-.56,11.22,11.22,0,0,0-2.73-.28,5.39,5.39,0,0,0-4.57,2q-1.49,2-1.48,5.92a10,10,0,0,0,1.48,6,5.22,5.22,0,0,0,4.5,2,10.17,10.17,0,0,0,2.85-.35,15.12,15.12,0,0,0,1.91-.7,2.91,2.91,0,0,1,1-.35,1.31,1.31,0,0,1,1,.63,5.51,5.51,0,0,1,.76,1.36,3.59,3.59,0,0,1,.27,1,1.35,1.35,0,0,1-.33.89,3.12,3.12,0,0,1-.89.72,8.11,8.11,0,0,1-2,.75,19.41,19.41,0,0,1-4.57.58Z"/><path class="cls-1" d="M121.59,227.34c-1.39,0-2.09-.39-2.09-1.16v-22.4c0-.77.7-1.15,2.09-1.15h1.23c1.4,0,2.1.38,2.1,1.15v22.4c0,.77-.7,1.16-2.1,1.16Z"/><path class="cls-1" d="M137.06,227.3a4.36,4.36,0,0,1-1.29-.16.92.92,0,0,1-.67-.57l-7.56-22.51a3.18,3.18,0,0,0-.08-.33.84.84,0,0,1-.06-.3c0-.51.72-.77,2.14-.77h1.22a3.75,3.75,0,0,1,1.33.21,1.16,1.16,0,0,1,.74.81l4.34,13.89c.19.56.35,1.15.51,1.75a8.57,8.57,0,0,1,.26,1.44h.14a12.94,12.94,0,0,1,.3-1.44c.15-.6.31-1.19.47-1.75l4.48-13.89a1.2,1.2,0,0,1,.73-.79,3.59,3.59,0,0,1,1.33-.23h1c1.4,0,2.1.26,2.1.77a2.45,2.45,0,0,1-.11.63l-7.56,22.51a.88.88,0,0,1-.66.57,4.39,4.39,0,0,1-1.3.16Z"/><path class="cls-1" d="M153.09,227.34c-1.4,0-2.1-.39-2.1-1.16v-22.4c0-.77.7-1.15,2.1-1.15h1.23c1.4,0,2.1.38,2.1,1.15v22.4c0,.77-.7,1.16-2.1,1.16Z"/><path class="cls-1" d="M162.72,227.23a1.24,1.24,0,0,1-1.4-1.4V203.78c0-.74.7-1.12,2.1-1.12h1.19c1.4,0,2.1.38,2.1,1.12v18.87h7.56c.7,0,1,.58,1,1.75v1.08c0,1.17-.35,1.75-1,1.75Z"/><path class="cls-1" d="M140.89,82.94a14.21,14.21,0,0,1-2.11.33H93.62a6.07,6.07,0,0,1-6-6.07c.06-1.8,0-3.6,0-5.4a16.47,16.47,0,0,1,4.9-11.94,16.79,16.79,0,0,1,12-5.12,10.07,10.07,0,0,1,4.08.67,20.34,20.34,0,0,0,8.06,1.4,25.28,25.28,0,0,0,8.3-1.74,10.09,10.09,0,0,1,3.08-.29c.47,0,.45.41.47.78.14,2,.18,4,.46,6a33.79,33.79,0,0,0,12,21.11Z"/><path class="cls-1" d="M99.9,34.12a16.3,16.3,0,1,1,16.2,16.3A16.32,16.32,0,0,1,99.9,34.12Z"/><path class="cls-1" d="M132.69,56.8c-.17-3.11,1.16-3.87,3.16-4.59l.77-.3L149.24,47a4.79,4.79,0,0,1,3.7,0c4.66,1.86,9.34,3.67,14,5.5a3.32,3.32,0,0,1,2.45,3.59,29.87,29.87,0,0,1-7.3,19.88,26,26,0,0,1-9.23,6.9,4.18,4.18,0,0,1-3.54,0,26.14,26.14,0,0,1-10.61-8.56,30.89,30.89,0,0,1-5.62-13.56C132.87,59.44,132.82,58.12,132.69,56.8ZM151,52.64V77.11c.42-.19.76-.32,1.07-.5a21.74,21.74,0,0,0,6.16-5.3,24.06,24.06,0,0,0,5.15-13.1.86.86,0,0,0-.67-1c-2.45-.92-4.88-1.88-7.33-2.83Z"/><rect class="cls-2" width="267" height="246"/></g></g></svg>