<svg xmlns="http://www.w3.org/2000/svg" viewBox="0 0 267 246"><defs><style>.cls-1{fill:#fff;}.cls-2{fill:none;}</style></defs><g id="Capa_2" data-name="Capa 2"><g id="Capa_1-2" data-name="Capa 1"><path class="cls-1" d="M72.94,163.11q-2.64,0-2.64-4.4v-1.5q0-4.4,2.64-4.4H84.66V113.26l-12,1.76a1.92,1.92,0,0,1-1.76-1.32,9.85,9.85,0,0,1-.84-3.08,24.15,24.15,0,0,1-.22-3c0-1.35.76-2.17,2.29-2.46l21.93-4a5.15,5.15,0,0,1,2.33.66c.85.44,1.28.92,1.28,1.45v49.59h8.54q2.65,0,2.65,4.4v1.5q0,4.39-2.65,4.4Z"/><path class="cls-1" d="M136.27,163.82a17.3,17.3,0,0,1-11.19-3.75,23.53,23.53,0,0,1-7.18-10.83,51.05,51.05,0,0,1-2.51-17,51,51,0,0,1,2.51-17,23.56,23.56,0,0,1,7.18-10.79,18.56,18.56,0,0,1,22.37,0,23.48,23.48,0,0,1,7.18,10.79,51,51,0,0,1,2.51,17,51.05,51.05,0,0,1-2.51,17,23.46,23.46,0,0,1-7.18,10.83A17.29,17.29,0,0,1,136.27,163.82Zm0-10.31a5,5,0,0,0,4.18-2.38,18,18,0,0,0,2.6-7.13,66.42,66.42,0,0,0,.88-11.71,66.24,66.24,0,0,0-.88-11.76,18,18,0,0,0-2.6-7.09,4.87,4.87,0,0,0-8.37,0,18,18,0,0,0-2.6,7.09,66.24,66.24,0,0,0-.88,11.76,66.42,66.42,0,0,0,.88,11.71,18,18,0,0,0,2.6,7.13A5,5,0,0,0,136.27,153.51Z"/><path class="cls-1" d="M172.46,163.29q-5.19,0-5.19-1.68a2.27,2.27,0,0,1,.13-.74,6.66,6.66,0,0,1,.4-.93l21.84-48.18h-23c-1.76,0-2.64-1.46-2.64-4.4v-1.5q0-4.39,2.64-4.4h34.88q.53,0,1.14,1.41a18.92,18.92,0,0,1,1.06,3.26,14.48,14.48,0,0,1,.44,3.26,3.49,3.49,0,0,1-.18,1.14l-23.16,51a2.47,2.47,0,0,1-1.8,1.41,13.77,13.77,0,0,1-3.31.35Z"/><path class="cls-1" d="M94.51,203.25A15.92,15.92,0,0,1,90,202.7a9.82,9.82,0,0,1-2.76-1.2c-.66-.45-1-.89-1-1.33a2.71,2.71,0,0,1,.38-1.28,6,6,0,0,1,.91-1.28c.35-.37.64-.56.88-.56a.89.89,0,0,1,.4.12l.58.3c.46.23,1,.49,1.73.77a6.44,6.44,0,0,0,2.43.42,6,6,0,0,0,1.52-.19,2.6,2.6,0,0,0,1.26-.74,2.13,2.13,0,0,0,.51-1.52,2,2,0,0,0-.8-1.68,8.35,8.35,0,0,0-2-1.12c-.83-.33-1.68-.7-2.54-1.12a11.28,11.28,0,0,1-1.75-1,7.34,7.34,0,0,1-1.52-1.38A5.86,5.86,0,0,1,87.16,188a8.46,8.46,0,0,1-.38-2.72A6.38,6.38,0,0,1,88,181.18a7.1,7.1,0,0,1,3.13-2.28,11.12,11.12,0,0,1,3.94-.72,13.71,13.71,0,0,1,2.31.18,10.62,10.62,0,0,1,1.87.47,5.65,5.65,0,0,1,1.35.68c.51.38.77.75.77,1.12a3.41,3.41,0,0,1-.3,1.2,5,5,0,0,1-.75,1.29,1.22,1.22,0,0,1-.87.56,1.28,1.28,0,0,1-.48-.14c-.2-.09-.46-.2-.78-.32a7.06,7.06,0,0,0-1.11-.29,8.36,8.36,0,0,0-1.52-.13,5.18,5.18,0,0,0-2.06.32,1.91,1.91,0,0,0-1,.77,1.85,1.85,0,0,0-.24.87,2.32,2.32,0,0,0,.52,1.56,4.15,4.15,0,0,0,1.37,1c.56.28,1.17.57,1.85.85s1.46.63,2.21,1a9.63,9.63,0,0,1,2.06,1.35,5.89,5.89,0,0,1,1.52,2,7,7,0,0,1,.58,3,8.56,8.56,0,0,1-.68,3.6,6.29,6.29,0,0,1-1.84,2.37,7.68,7.68,0,0,1-2.55,1.29A10.21,10.21,0,0,1,94.51,203.25Z"/><path class="cls-1" d="M105.15,203q-2.13,0-2.13-.78a.77.77,0,0,1,0-.29l.09-.34,7.7-22.5c.18-.49.85-.74,2-.74h1.82c1.17,0,1.83.25,2,.74l7.7,22.5a2.27,2.27,0,0,1,.1.63c0,.52-.58.78-1.75.78h-1.54a4.72,4.72,0,0,1-1.29-.16.93.93,0,0,1-.67-.58l-1.4-4.27h-8.26l-1.4,4.27a.94.94,0,0,1-.56.56,2.67,2.67,0,0,1-1,.18Zm5.92-9.63h5.25l-2-6.23c-.12-.37-.22-.75-.3-1.12s-.15-.75-.22-1.12h-.14l-.21,1.12a6.73,6.73,0,0,1-.32,1.12Z"/><path class="cls-1" d="M138.72,197.12a1.63,1.63,0,0,1-1.4-.66L133,188.75l-.4-.68c-.13-.22-.25-.45-.37-.68l-.14,0v14.5c0,.74-.7,1.12-2.1,1.12h-1c-1.4,0-2.1-.38-2.1-1.12V179.51c0-.74.7-1.12,2.1-1.12h1.85a4,4,0,0,1,1.35.21,1.61,1.61,0,0,1,.86.74l5.81,10.36a1.4,1.4,0,0,0,.17.28,1.57,1.57,0,0,1,.18.31,1.48,1.48,0,0,1,.15-.31c.06-.09.11-.19.16-.28l5.92-10.36a1.55,1.55,0,0,1,.85-.74,4,4,0,0,1,1.35-.21h1.82c1.4,0,2.1.38,2.1,1.12v22.41c0,.74-.7,1.12-2.1,1.12h-1c-1.4,0-2.1-.38-2.1-1.12v-14.5l-.14,0c-.12.23-.24.46-.37.68l-.4.68-4.31,7.71a1.64,1.64,0,0,1-1.4.66Z"/><path class="cls-1" d="M158.07,203a1.24,1.24,0,0,1-1.4-1.4V179.87a1.24,1.24,0,0,1,1.4-1.41h12.29c.7,0,1,.59,1,1.75v1.09c0,1.17-.35,1.75-1,1.75h-8.3v5.07h7.35c.7,0,1.05.59,1.05,1.76V191c0,1.17-.35,1.75-1.05,1.75h-7.35v5.67h8.33c.7,0,1.05.58,1.05,1.75v1.08c0,1.17-.35,1.75-1.05,1.75Z"/><path class="cls-1" d="M130.85,45.11v4.78h-4.24a3.6,3.6,0,0,0-3.3,3.61v4a3.61,3.61,0,0,0,3.31,3.67h4.23v4.66c.83,2,2.45,3.62,4.45,2.87h4c2,.75,4.72-2.87,4.72-2.87V61.2h3.66a4.21,4.21,0,0,0,3.88-3.73v-4c-.25-2-3.88-3.55-3.88-3.55h-5.54V45.06c.78-2-.84-3.63-2.84-2.7h-4C133.26,41.43,130.85,45.11,130.85,45.11Zm9.42,0v7.54s-.3.45-.05-.87h7.54c.19,1.33.36,1.47.05,1.66v4c.36.25-.09,0-.09,0h-7.54s-.45.7.09,1v7.53a1.76,1.76,0,0,0-1,.94h-4a4.89,4.89,0,0,0-.66-.94V58.38a2.21,2.21,0,0,0-.24-1h-7.54c-.25.49-.45.29.24,0v-4c-.69-.25-.24-1.66-.24-1.66h7.54s.45,1,.24.76V45c.21-.25.42-.45.66-.76h4c.25.3.46.5.46.75A2.19,2.19,0,0,0,140.27,45.11Z"/><path class="cls-1" d="M164.88,35.18c-4.93-.77-17.37-3.29-26.49-10a1.89,1.89,0,0,0-2.2,0c-9.1,6.63-21.55,9.16-26.47,10A1.87,1.87,0,0,0,108.14,37a101.32,101.32,0,0,0,3.5,22.1,54.78,54.78,0,0,0,9.89,20A35.33,35.33,0,0,0,136.6,90.16a1.82,1.82,0,0,0,1.3,0A35.31,35.31,0,0,0,153,79.06a55,55,0,0,0,10-20,101.72,101.72,0,0,0,3.49-22A1.9,1.9,0,0,0,164.88,35.18Zm-5.52,22.93a51.3,51.3,0,0,1-9.19,18.71,31.75,31.75,0,0,1-12.87,9.7,31.75,31.75,0,0,1-12.85-9.66,51.18,51.18,0,0,1-9.19-18.63A98.82,98.82,0,0,1,112,38.61a67.81,67.81,0,0,0,25.32-9.55,67.87,67.87,0,0,0,25.32,9.55A98.21,98.21,0,0,1,159.36,58.11Z"/><rect class="cls-2" width="267" height="246"/></g></g></svg>