<svg xmlns="http://www.w3.org/2000/svg" viewBox="0 0 267 246"><defs><style>.cls-1{fill:#fff;}.cls-2{fill:none;}</style></defs><g id="Capa_2" data-name="Capa 2"><g id="Capa_1-2" data-name="Capa 1"><path class="cls-1" d="M59.43,154.71q-2.64,0-2.64-4.41v-1.5q0-4.4,2.64-4.4H71.15V104.85l-12,1.77a1.91,1.91,0,0,1-1.76-1.33,9.77,9.77,0,0,1-.84-3.08,24,24,0,0,1-.22-3c0-1.35.76-2.17,2.29-2.47l21.93-4a5.15,5.15,0,0,1,2.33.66c.85.44,1.28.93,1.28,1.45V144.4h8.54q2.66,0,2.65,4.4v1.5q0,4.41-2.65,4.41Z"/><path class="cls-1" d="M131,154.88q-5.29,0-5.29-2.82V142.2H102.68c-.47,0-1-.51-1.5-1.54a15.71,15.71,0,0,1-1.28-3.53,14.12,14.12,0,0,1-.48-3.12,2.16,2.16,0,0,1,.17-1l26.16-38.49a3.29,3.29,0,0,1,2.12-1.41,16.61,16.61,0,0,1,3.25-.26h2.38c3.52,0,5.29.94,5.29,2.82v36.19h3.34c1.76,0,2.65,1.47,2.65,4.41v1.49c0,2.94-.89,4.41-2.65,4.41h-3.34v9.86c0,1.88-1.77,2.82-5.29,2.82Zm-18.5-23h13.21V118.33a33.53,33.53,0,0,1,.31-4.4,32.22,32.22,0,0,1,.66-3.79l-.35-.09Z"/><path class="cls-1" d="M178.15,154.88q-5.28,0-5.28-2.82V142.2H149.79c-.47,0-1-.51-1.49-1.54a15.71,15.71,0,0,1-1.28-3.53,14.12,14.12,0,0,1-.48-3.12,2.16,2.16,0,0,1,.17-1l26.16-38.49A3.3,3.3,0,0,1,175,93.14a16.72,16.72,0,0,1,3.26-.26h2.38c3.52,0,5.29.94,5.29,2.82v36.19h3.34q2.64,0,2.64,4.41v1.49q0,4.41-2.64,4.41h-3.34v9.86c0,1.88-1.77,2.82-5.29,2.82Zm-18.49-23h13.21V118.33a33.53,33.53,0,0,1,.31-4.4,32.22,32.22,0,0,1,.66-3.79l-.35-.09Z"/><path class="cls-1" d="M28.11,192a4.75,4.75,0,0,1-1.3-.16.91.91,0,0,1-.66-.58l-7.56-22.51c0-.11-.05-.22-.09-.33a1,1,0,0,1-.05-.29q0-.78,2.13-.78h1.23a3.83,3.83,0,0,1,1.33.21,1.17,1.17,0,0,1,.73.81l4.34,13.89c.19.57.36,1.15.51,1.75a8.57,8.57,0,0,1,.26,1.44h.14q.07-.53.3-1.44c.15-.6.31-1.18.47-1.75l4.48-13.89a1.21,1.21,0,0,1,.74-.79,3.52,3.52,0,0,1,1.33-.23h1q2.1,0,2.1.78a2.38,2.38,0,0,1-.1.62L31.89,191.3a1,1,0,0,1-.67.58,4.72,4.72,0,0,1-1.29.16Z"/><path class="cls-1" d="M44.14,192.07c-1.4,0-2.1-.39-2.1-1.15V168.51c0-.76.7-1.15,2.1-1.15h1.22c1.4,0,2.1.39,2.1,1.15v22.41c0,.76-.7,1.15-2.1,1.15Z"/><path class="cls-1" d="M62.51,192.25q-5.38,0-8.31-3.24t-2.92-9.3q0-6,2.92-9.29t8.31-3.24q5.43,0,8.31,3.24t2.89,9.29q0,6.06-2.89,9.3T62.51,192.25Zm0-4.59a4.84,4.84,0,0,0,4.24-2,12.85,12.85,0,0,0,0-11.78,5.45,5.45,0,0,0-8.49,0,12.69,12.69,0,0,0,0,11.78A4.88,4.88,0,0,0,62.51,187.66Z"/><path class="cls-1" d="M79.35,192a1.23,1.23,0,0,1-1.4-1.4V168.51c0-.74.7-1.12,2.1-1.12h1.19c1.4,0,2.1.38,2.1,1.12v18.87H90.9c.7,0,1,.58,1,1.75v1.08c0,1.17-.35,1.75-1,1.75Z"/><path class="cls-1" d="M95.62,192a1.24,1.24,0,0,1-1.4-1.4V168.87a1.24,1.24,0,0,1,1.4-1.41h12.29c.7,0,1,.59,1,1.75v1.09c0,1.17-.35,1.75-1,1.75h-8.3v5.07H107c.7,0,1.05.59,1.05,1.76V180c0,1.17-.35,1.75-1.05,1.75H99.61v5.67h8.33c.7,0,1,.58,1,1.75v1.08c0,1.17-.35,1.75-1,1.75Z"/><path class="cls-1" d="M115.15,192c-1.4,0-2.1-.38-2.1-1.12V168.51c0-.74.7-1.12,2.1-1.12h1.51a4.48,4.48,0,0,1,1.34.18,1.76,1.76,0,0,1,1,.77l7.87,12.14a10.62,10.62,0,0,1,.68,1c.2.33.4.68.58,1.05l.14,0c0-.39,0-.76-.05-1.1s0-.76,0-1.28V168.51c0-.74.7-1.12,2.1-1.12h1c1.4,0,2.1.38,2.1,1.12v22.41c0,.74-.7,1.12-2.1,1.12H130a4.5,4.5,0,0,1-1.35-.18,1.7,1.7,0,0,1-1-.77l-8.05-12.32c-.24-.35-.46-.69-.67-1a9.39,9.39,0,0,1-.59-1l-.14,0c0,.4.07.76.07,1.1v13.08c0,.74-.7,1.12-2.1,1.12Z"/><path class="cls-1" d="M148.89,192.25c-3.92,0-6.82-1-8.7-3.07s-2.81-5.22-2.81-9.54q0-12.45,11.69-12.46a18.86,18.86,0,0,1,2.32.16,17.66,17.66,0,0,1,2.3.46,7.32,7.32,0,0,1,1.78.71c.61.36.91.73.91,1.12a3.17,3.17,0,0,1-.38,1.28,6.62,6.62,0,0,1-.91,1.4,1.41,1.41,0,0,1-1,.61,2.23,2.23,0,0,1-.79-.28,10.69,10.69,0,0,0-1.63-.56,11.22,11.22,0,0,0-2.73-.28,5.4,5.4,0,0,0-4.57,2q-1.48,2-1.48,5.92a10,10,0,0,0,1.48,5.95,5.23,5.23,0,0,0,4.5,2,10.17,10.17,0,0,0,2.85-.35,13.24,13.24,0,0,0,1.91-.7,3.17,3.17,0,0,1,1-.35,1.31,1.31,0,0,1,1,.63,5.51,5.51,0,0,1,.76,1.36,3.79,3.79,0,0,1,.28,1.05,1.35,1.35,0,0,1-.34.9,3.12,3.12,0,0,1-.89.72,9,9,0,0,1-2,.75,17.46,17.46,0,0,1-2.38.43A18,18,0,0,1,148.89,192.25Z"/><path class="cls-1" d="M161.81,192.07c-1.4,0-2.1-.39-2.1-1.15V168.51c0-.76.7-1.15,2.1-1.15H163c1.4,0,2.1.39,2.1,1.15v22.41c0,.76-.7,1.15-2.1,1.15Z"/><path class="cls-1" d="M169.51,192c-1.43,0-2.14-.26-2.14-.78a1,1,0,0,1,0-.29,1.89,1.89,0,0,0,.09-.34l7.7-22.5c.19-.49.85-.74,2-.74H179c1.16,0,1.83.25,2,.74l7.7,22.5a2.32,2.32,0,0,1,.11.63c0,.52-.59.78-1.75.78h-1.54a4.75,4.75,0,0,1-1.3-.16.91.91,0,0,1-.66-.58l-1.4-4.27h-8.26l-1.4,4.27a1,1,0,0,1-.56.56,2.67,2.67,0,0,1-1.05.18Zm5.91-9.63h5.25l-2-6.23c-.12-.37-.22-.75-.3-1.12s-.16-.75-.23-1.12H178l-.21,1.12a6.68,6.68,0,0,1-.31,1.12Z"/><path class="cls-1" d="M201.29,192a1.23,1.23,0,0,1-1.4-1.4V168.87a1.24,1.24,0,0,1,1.4-1.41h7.49a12.26,12.26,0,0,1,6.1,1.42,9.13,9.13,0,0,1,3.8,4.15,15.57,15.57,0,0,1,1.3,6.68,17,17,0,0,1-.74,5.25,10.16,10.16,0,0,1-2.17,3.84,9.26,9.26,0,0,1-3.52,2.36,13.07,13.07,0,0,1-4.77.8Zm4-4.58h3.47a5.35,5.35,0,0,0,3.15-.88,5.21,5.21,0,0,0,1.89-2.58,14.35,14.35,0,0,0,0-8.41,5.28,5.28,0,0,0-1.89-2.59,5.42,5.42,0,0,0-3.15-.87h-3.47Z"/><path class="cls-1" d="M225.64,192a1.23,1.23,0,0,1-1.39-1.4V168.87a1.24,1.24,0,0,1,1.39-1.41h12.29c.7,0,1,.59,1,1.75v1.09c0,1.17-.35,1.75-1,1.75h-8.3v5.07H237c.7,0,1.06.59,1.06,1.76V180c0,1.17-.36,1.75-1.06,1.75h-7.35v5.67H238c.71,0,1,.58,1,1.75v1.08c0,1.17-.34,1.75-1,1.75Z"/><path class="cls-1" d="M80,223.25c-3.92,0-6.82-1-8.7-3.07s-2.82-5.22-2.82-9.54q0-6.25,2.94-9.36c2-2.06,4.88-3.1,8.75-3.1a18.81,18.81,0,0,1,4.9.69,7.59,7.59,0,0,1,1.87.77,1.21,1.21,0,0,1,.72,1,3.17,3.17,0,0,1-.38,1.28,6.62,6.62,0,0,1-.91,1.4,1.41,1.41,0,0,1-1,.61,2.55,2.55,0,0,1-.83-.28,11.4,11.4,0,0,0-1.71-.56,11.91,11.91,0,0,0-2.78-.28,6.2,6.2,0,0,0-3.42.88,5.16,5.16,0,0,0-2,2.62,12.8,12.8,0,0,0-.65,4.38,14.34,14.34,0,0,0,.37,3.46,6.75,6.75,0,0,0,1.12,2.51,4.79,4.79,0,0,0,1.87,1.5,6.3,6.3,0,0,0,2.63.51,14.11,14.11,0,0,0,2-.14c.62-.09,1.36-.25,2.23-.46l-1.54,2.39V214H79.63c-.7,0-1-.58-1-1.75V211.1c0-1.17.35-1.75,1-1.75h7.1a1.24,1.24,0,0,1,1.4,1.4v9.73a1.62,1.62,0,0,1-.91,1.45,7.17,7.17,0,0,1-2.24.82,20.27,20.27,0,0,1-2.69.39C81.38,223.21,80.61,223.25,80,223.25Z"/><path class="cls-1" d="M94.5,223a1.24,1.24,0,0,1-1.4-1.4V199.87a1.24,1.24,0,0,1,1.4-1.41h12.29c.7,0,1,.59,1,1.75v1.09c0,1.17-.35,1.75-1,1.75h-8.3v5.07h7.35c.7,0,1,.59,1,1.76V211c0,1.17-.35,1.75-1,1.75H98.49v5.67h8.33c.7,0,1.05.58,1.05,1.75v1.08c0,1.17-.35,1.75-1.05,1.75Z"/><path class="cls-1" d="M114,223c-1.4,0-2.1-.38-2.1-1.12V199.51c0-.74.7-1.12,2.1-1.12h1.51a4.48,4.48,0,0,1,1.34.18,1.76,1.76,0,0,1,1,.77l7.87,12.14a10.62,10.62,0,0,1,.68,1c.2.33.39.68.58,1.05l.14,0c0-.39,0-.76-.05-1.1s0-.76,0-1.28V199.51c0-.74.7-1.12,2.1-1.12h1c1.4,0,2.1.38,2.1,1.12v22.41c0,.74-.7,1.12-2.1,1.12h-1.33a4.5,4.5,0,0,1-1.35-.18,1.7,1.7,0,0,1-1-.77l-8-12.32c-.24-.35-.46-.69-.67-1a9.39,9.39,0,0,1-.59-1l-.14,0c0,.4.07.76.07,1.1v13.08c0,.74-.7,1.12-2.1,1.12Z"/><path class="cls-1" d="M138.78,223a1.23,1.23,0,0,1-1.4-1.4V199.87a1.24,1.24,0,0,1,1.4-1.41h12.28c.7,0,1.05.59,1.05,1.75v1.09c0,1.17-.35,1.75-1.05,1.75h-8.29v5.07h7.35c.7,0,1,.59,1,1.76V211c0,1.17-.35,1.75-1,1.75h-7.35v5.67h8.33c.7,0,1.05.58,1.05,1.75v1.08c0,1.17-.35,1.75-1.05,1.75Z"/><path class="cls-1" d="M158.31,223c-1.4,0-2.1-.38-2.1-1.12v-22a1.24,1.24,0,0,1,1.4-1.41h6.82c3,0,5.24.58,6.63,1.72a6,6,0,0,1,2.09,4.86,5.31,5.31,0,0,1-1.14,3.45,6.89,6.89,0,0,1-3,2.12v.14a3.28,3.28,0,0,1,1.37,1.17,9.1,9.1,0,0,1,1.15,2.05l3.08,7.7a2.11,2.11,0,0,1,.18.66c0,.47-.7.71-2.1.71h-1.44a4.94,4.94,0,0,1-1.31-.16,1.06,1.06,0,0,1-.72-.58l-2.76-6.83a4.7,4.7,0,0,0-1.18-1.57,3.89,3.89,0,0,0-2.36-.52H161.6v8.54c0,.74-.7,1.12-2.1,1.12Zm3.29-14.32h3.32a2.4,2.4,0,0,0,1.35-.4,3,3,0,0,0,1-1.09,3.19,3.19,0,0,0,.37-1.52,2.51,2.51,0,0,0-.79-1.94,3.07,3.07,0,0,0-2.15-.72H161.6Z"/><path class="cls-1" d="M187.6,223.25q-5.39,0-8.31-3.24t-2.92-9.3q0-6,2.92-9.29t8.31-3.24q5.43,0,8.31,3.24t2.89,9.29q0,6.06-2.89,9.3T187.6,223.25Zm0-4.59a4.84,4.84,0,0,0,4.24-2,12.85,12.85,0,0,0,0-11.78,5.45,5.45,0,0,0-8.49,0,12.69,12.69,0,0,0,0,11.78A4.87,4.87,0,0,0,187.6,218.66Z"/><path class="cls-1" d="M127.91,79.32c-1.21-.16-2.44-.3-3.65-.5a32.74,32.74,0,0,1-19.86-52.6c.32-.42.67-.82,1-1.22a1,1,0,0,1,1.41-.2,1,1,0,0,1,0,1.43c-1.26,1.78-2.67,3.49-3.75,5.37a30.75,30.75,0,0,0,3.47,35,30.15,30.15,0,0,0,19.08,10.48,30.78,30.78,0,0,0,34.54-25.22,30,30,0,0,0-6.83-25.16,29.5,29.5,0,0,0-18.13-10.44,30.21,30.21,0,0,0-25,6.66c-.23.19-.45.4-.69.58a1,1,0,0,1-1.37-.07.94.94,0,0,1,.18-1.4c1.63-1.23,3.22-2.53,5-3.59A31.36,31.36,0,0,1,127.55,14a2.84,2.84,0,0,0,.49-.1h4l.49.11c1.67.26,3.37.41,5,.79A32.63,32.63,0,0,1,162.12,41c.2,1.2.33,2.4.5,3.6v4.09a4.48,4.48,0,0,0-.11.5c-.22,1.51-.36,3-.67,4.54a32.7,32.7,0,0,1-26.2,25.14c-1.21.2-2.43.34-3.64.5Z"/><path class="cls-1" d="M142,32.75c.94.23,1.69.44,2.45.58a.79.79,0,0,0,.62-.23c1.36-1.34,2.71-2.7,4.07-4.05a2,2,0,0,1,3.41.22,28.06,28.06,0,0,1,5.78,19.31,28.41,28.41,0,0,1-22.74,25.93,27.76,27.76,0,0,1-23-5.36,2,2,0,0,1-.22-3.29c.91-.93,1.82-1.85,2.75-2.76.27-.26.36-.45.12-.8s-.62-1.06-.95-1.65L111,64c-1.37,1.37-2.54,1.29-3.71-.27a28.51,28.51,0,0,1,1.09-35.6c.5-.59,1-.7,1.48-.34s.5,1,0,1.57a25.63,25.63,0,0,0-5.66,11.23,26.16,26.16,0,0,0,4.76,22.15c.06.09.14.16.23.27a2.77,2.77,0,0,0,.31-.21c1.29-1.3,2.6-2.58,3.87-3.9a1,1,0,0,0,.18-.71c-.09-1.23-.32-2.45-.34-3.68-.05-3.62,0-7.24,0-10.86a4.15,4.15,0,0,1,6.35-3.73V37.75c0-1.58,0-3.16,0-4.73a4.11,4.11,0,0,1,6-3.87l.32.12c0-2.61,1.07-4.43,3.75-4.76,2.09-.26,3.51.85,4.36,2.79a4.13,4.13,0,0,1,4.68,0,4.27,4.27,0,0,1,1.83,4.19l5.81-5.82s-.14-.15-.28-.26a26.47,26.47,0,0,0-32.78.65c-.16.14-.32.28-.49.41-.56.43-1.1.43-1.47,0a1,1,0,0,1,.24-1.45c1-.78,2-1.58,3-2.26a28.27,28.27,0,0,1,32.62,1.11c1.51,1.14,1.6,2.34.27,3.68l-4.78,4.78A4.24,4.24,0,0,1,142,32.75Zm-20.54,16.1.32,0A9.41,9.41,0,0,1,129.84,58c0,.71-.32,1.13-.89,1.16s-1-.4-1-1.13a7.42,7.42,0,0,0-6.53-7.26,2,2,0,0,1-1.9-2.23c0-1.64,0-3.28,0-4.92a2.23,2.23,0,0,0-2.15-2.43,2.25,2.25,0,0,0-2.29,2.38c0,3.9-.06,7.8,0,11.69A11.69,11.69,0,0,0,126.82,66.8c2.13,0,4.25,0,6.38,0a11.57,11.57,0,0,0,11-8,13.51,13.51,0,0,0,.61-3.89c.07-5.79,0-11.58,0-17.38a3.9,3.9,0,0,0-.06-.76,2.2,2.2,0,0,0-4.38.4c0,3,0,6,0,9a3.75,3.75,0,0,1,0,.58.9.9,0,0,1-.91.82.88.88,0,0,1-1-.75,2.26,2.26,0,0,1,0-.64V33c0-.81,0-1.62,0-2.42a2.18,2.18,0,0,0-1.89-2.09,2.14,2.14,0,0,0-2.37,1.41,3.64,3.64,0,0,0-.16,1.19q0,6.9,0,13.81c0,.21,0,.42,0,.63a.94.94,0,0,1-1.87.1,4.1,4.1,0,0,1,0-.7V29.19c0-.28,0-.56,0-.83a2.21,2.21,0,0,0-4.39.42V45a4.42,4.42,0,0,1,0,.63.95.95,0,0,1-1.89,0c0-.19,0-.38,0-.57q0-5.85,0-11.7a3.79,3.79,0,0,0-.18-1.25,2.17,2.17,0,0,0-2.4-1.37,2.22,2.22,0,0,0-1.84,2.27q0,7.73,0,15.46C121.4,48.52,121.42,48.66,121.43,48.85Zm29.3-18.7c-1.51,1.51-3,3-4.44,4.46-.1.09-.08.33,0,.49a14.93,14.93,0,0,1,.51,2.6c.05,5.32,0,10.65,0,16,0,.89,0,1.79-.09,2.68a13.62,13.62,0,0,1-13.25,12.36c-2.29,0-4.59,0-6.89,0A12.29,12.29,0,0,1,120.22,67c-1.26-.76-2.41-1.71-3.55-2.54l-3,3c8.58,7.22,23.66,8.41,34.22-1.36A26.48,26.48,0,0,0,150.73,30.15Z"/><rect class="cls-2" width="267" height="246"/></g></g></svg>