<svg xmlns="http://www.w3.org/2000/svg" viewBox="0 0 267 246"><defs><style>.cls-1{fill:#fff;}.cls-2{fill:none;}</style></defs><g id="Capa_2" data-name="Capa 2"><g id="Capa_1-2" data-name="Capa 1"><path class="cls-1" d="M76.61,174.51a2.87,2.87,0,0,1-2.46-1.46,12.6,12.6,0,0,1-1.94-5.85,2.66,2.66,0,0,1,.22-1.32,1.44,1.44,0,0,1,.92-.53,29.35,29.35,0,0,0,11.72-6.3A25.14,25.14,0,0,0,92.47,148a15.79,15.79,0,0,1-4.72,1.8,22.18,22.18,0,0,1-4.09.4,18.14,18.14,0,0,1-5.42-.93,18,18,0,0,1-5.68-3,15.72,15.72,0,0,1-4.49-5.72,20.33,20.33,0,0,1-1.76-9,21,21,0,0,1,1.8-9.12,17,17,0,0,1,4.8-6.08,20.18,20.18,0,0,1,6.7-3.43,25.92,25.92,0,0,1,7.4-1.1A23.28,23.28,0,0,1,94.4,113a19.23,19.23,0,0,1,6.74,3.92A18.76,18.76,0,0,1,106,124a28.47,28.47,0,0,1,1.8,10.75,45,45,0,0,1-2.16,14.7A36,36,0,0,1,100,160.11a38.16,38.16,0,0,1-7.35,7.22,38.94,38.94,0,0,1-7.49,4.4,43.76,43.76,0,0,1-5.9,2.16A21.22,21.22,0,0,1,76.61,174.51Zm10.84-34.62a10.65,10.65,0,0,0,3.52-.61,24.76,24.76,0,0,0,3.43-1.5q.09-1,.09-2v-2.07a19.16,19.16,0,0,0-1-6.92,7.49,7.49,0,0,0-2.73-3.61,7,7,0,0,0-3.83-1.1,6.6,6.6,0,0,0-3.75,1.15,8.09,8.09,0,0,0-2.73,3.17,10.55,10.55,0,0,0-1,4.75,10.78,10.78,0,0,0,.93,4.63,6.68,6.68,0,0,0,2.73,3A8.51,8.51,0,0,0,87.45,139.89Z"/><path class="cls-1" d="M118.18,174.07q-2.64,0-2.64-4.41v-1.49q0-4.41,2.64-4.41H129.9V124.22l-12,1.76a1.93,1.93,0,0,1-1.76-1.32,10.4,10.4,0,0,1-.84-3.09,24,24,0,0,1-.22-3c0-1.35.76-2.17,2.29-2.47l21.93-4a5.19,5.19,0,0,1,2.34.66c.85.44,1.27.93,1.27,1.46v49.58h8.55q2.64,0,2.64,4.41v1.49q0,4.41-2.64,4.41Z"/><path class="cls-1" d="M165.3,174.07q-2.64,0-2.64-4.41v-1.49q0-4.41,2.64-4.41H177V124.22L165,126a1.92,1.92,0,0,1-1.76-1.32,10.4,10.4,0,0,1-.84-3.09,24,24,0,0,1-.22-3c0-1.35.76-2.17,2.29-2.47l21.93-4a5.12,5.12,0,0,1,2.33.66c.85.44,1.28.93,1.28,1.46v49.58h8.54q2.66,0,2.65,4.41v1.49q0,4.41-2.65,4.41Z"/><path class="cls-1" d="M74.15,214c-1.4,0-2.1-.38-2.1-1.12v-22a1.24,1.24,0,0,1,1.4-1.41H80.8a14.17,14.17,0,0,1,2.59.27,8.36,8.36,0,0,1,2.75,1,5.81,5.81,0,0,1,2.15,2.31,8.48,8.48,0,0,1,.84,4.06,8,8,0,0,1-.63,3.39,6.39,6.39,0,0,1-1.63,2.23,7.27,7.27,0,0,1-2.1,1.29,10.37,10.37,0,0,1-2.08.6,10.82,10.82,0,0,1-1.54.15H77.44v8.13c0,.74-.7,1.12-2.1,1.12Zm3.29-13.87h3.12a4.8,4.8,0,0,0,1-.12,2.73,2.73,0,0,0,1-.45,2.39,2.39,0,0,0,.73-.93,3.59,3.59,0,0,0,.28-1.54,3.16,3.16,0,0,0-.49-1.92,2.51,2.51,0,0,0-1.19-.92,4.2,4.2,0,0,0-1.36-.24H77.44Z"/><path class="cls-1" d="M102.4,214.25q-5.4,0-8.32-3.24t-2.92-9.3q0-6,2.92-9.29t8.32-3.24q5.41,0,8.31,3.24t2.89,9.29q0,6.06-2.89,9.3T102.4,214.25Zm0-4.59a4.83,4.83,0,0,0,4.23-2,12.77,12.77,0,0,0,0-11.78,4.86,4.86,0,0,0-4.23-2,4.92,4.92,0,0,0-4.26,2,12.69,12.69,0,0,0,0,11.78A4.89,4.89,0,0,0,102.4,209.66Z"/><path class="cls-1" d="M119.23,214a1.24,1.24,0,0,1-1.4-1.4V190.51c0-.74.7-1.12,2.1-1.12h1.19c1.4,0,2.1.38,2.1,1.12v18.87h7.56c.7,0,1.05.58,1.05,1.75v1.08c0,1.17-.35,1.75-1.05,1.75Z"/><path class="cls-1" d="M135.75,214.07c-1.4,0-2.1-.39-2.1-1.15V190.51c0-.76.7-1.15,2.1-1.15H137c1.4,0,2.1.39,2.1,1.15v22.41c0,.76-.7,1.15-2.1,1.15Z"/><path class="cls-1" d="M154.41,214.25c-3.92,0-6.82-1-8.7-3.07s-2.82-5.22-2.82-9.54q0-12.45,11.69-12.46a19,19,0,0,1,2.33.16,17.5,17.5,0,0,1,2.29.46,7.41,7.41,0,0,1,1.79.71c.6.36.91.73.91,1.12a3.06,3.06,0,0,1-.39,1.28,6.62,6.62,0,0,1-.91,1.4,1.41,1.41,0,0,1-1,.61,2.3,2.3,0,0,1-.79-.28,10.13,10.13,0,0,0-1.62-.56,11.22,11.22,0,0,0-2.73-.28,5.38,5.38,0,0,0-4.57,2q-1.49,2-1.49,5.92a10,10,0,0,0,1.49,5.95,5.22,5.22,0,0,0,4.5,2,10.17,10.17,0,0,0,2.85-.35,13.7,13.7,0,0,0,1.91-.7,3.09,3.09,0,0,1,1-.35,1.32,1.32,0,0,1,1,.63,5.82,5.82,0,0,1,.75,1.36,3.45,3.45,0,0,1,.28,1.05,1.39,1.39,0,0,1-.33.9,3.12,3.12,0,0,1-.89.72,9.09,9.09,0,0,1-2,.75,17.19,17.19,0,0,1-2.38.43A17.76,17.76,0,0,1,154.41,214.25Z"/><path class="cls-1" d="M167.32,214.07c-1.4,0-2.1-.39-2.1-1.15V190.51c0-.76.7-1.15,2.1-1.15h1.22c1.4,0,2.11.39,2.11,1.15v22.41c0,.76-.71,1.15-2.11,1.15Z"/><path class="cls-1" d="M175,214c-1.42,0-2.14-.26-2.14-.78a.79.79,0,0,1,.06-.29,3.38,3.38,0,0,0,.08-.34l7.7-22.5c.19-.49.86-.74,2-.74h1.82c1.17,0,1.83.25,2,.74l7.7,22.5a2.32,2.32,0,0,1,.11.63c0,.52-.58.78-1.75.78h-1.54a4.8,4.8,0,0,1-1.3-.16.91.91,0,0,1-.66-.58l-1.4-4.27h-8.26L178,213.3a.94.94,0,0,1-.56.56,2.67,2.67,0,0,1-1.05.18Zm5.91-9.63h5.25l-2-6.23c-.12-.37-.22-.75-.3-1.12s-.16-.75-.23-1.12h-.14l-.21,1.12a6.68,6.68,0,0,1-.31,1.12Z"/><path class="cls-1" d="M150.18,84.84a58.44,58.44,0,0,0-21.83-4.9h0a54.54,54.54,0,0,0-22.12,4.66,1.72,1.72,0,0,0-.77,2.26,28,28,0,0,0,22.79,14.78h.48c7.07,0,17.57-5.53,22.2-14.48A1.73,1.73,0,0,0,150.18,84.84Zm-21.3,14.89h-.31c-6,0-14.82-4.56-18.84-11.29a54.83,54.83,0,0,1,18.92-3.52h0a55.73,55.73,0,0,1,18.6,3.83C143,95.3,134.68,99.67,128.88,99.67Z"/><path class="cls-1" d="M128.07,72.91h-.46a57.42,57.42,0,0,0-25.92,6c-.42.23-.81.48-1.17.71.44,1,1.15,2.26,1.76,3.35,5.15-3.37,15-6,23.57-6.28h2.09a65,65,0,0,1,11.14,1.11,43.5,43.5,0,0,1,14.65,5.23c.61-1.08,1.32-2.38,1.76-3.34-.36-.23-.75-.49-1.17-.72A57.36,57.36,0,0,0,128.07,72.91Z"/><path class="cls-1" d="M160.62,59.37A10.7,10.7,0,0,1,158,54.28l-.31-1.61c-.78-4.16-1.3-6.92-6.38-7.49l-.94-.1c-4.06-.42-9.57-1-14.32-5.55a10.13,10.13,0,0,0-14.31-.73,8.38,8.38,0,0,0-.73.73c-4.67,4.56-10.24,5.13-14.32,5.55l-1,.1c-5.08.57-5.59,3.33-6.38,7.49l-.31,1.61a10.68,10.68,0,0,1-2.66,5.11c-.86,1-2,2.49-1,4.17s3.37,6.1,6.16,11.82a1.72,1.72,0,0,0,2.31.79l.15-.08c6-3.68,14.49-5.74,24-5.74,9.88,0,18.65,2.16,24.7,6.1a1.68,1.68,0,0,0,.94.29h.4a1.76,1.76,0,0,0,1.1-.8c1.49-2.53,3.83-7.28,5.34-10.13.57-1.13,1-1.92,1.19-2.34C162.54,61.82,161.43,60.4,160.62,59.37Zm-3.2,5c-1.16,2.29-3,5.86-4.38,8.4a51.39,51.39,0,0,0-25-5.8,52.09,52.09,0,0,0-24.13,5.27c-2.3-4.64-4.21-8.22-5.27-10l.5-.61A14.09,14.09,0,0,0,102.49,55l.33-1.65c.77-4.08.84-4.42,3.37-4.71l.92-.09c4.31-.44,10.84-1.13,16.38-6.52a6.59,6.59,0,0,1,9.29-.92,6.23,6.23,0,0,1,.93.92c5.54,5.39,12,6.06,16.38,6.52l.92.09c2.55.29,2.6.63,3.37,4.71L154.7,55a14,14,0,0,0,3.3,6.61l.52.65Z"/><path class="cls-1" d="M128.52,50.47h0a4.51,4.51,0,0,1-5.49,2.7,8.35,8.35,0,0,0,3.12,8.41,5.61,5.61,0,0,1,2.3,2.45,5.59,5.59,0,0,1,2.29-2.45,8.33,8.33,0,0,0,3.2-8.41A4.52,4.52,0,0,1,128.52,50.47Z"/><rect class="cls-2" width="267" height="246"/></g></g></svg>