<?xml version="1.0" encoding="UTF-8" standalone="no"?>
<svg
   xmlns:dc="http://purl.org/dc/elements/1.1/"
   xmlns:cc="http://creativecommons.org/ns#"
   xmlns:rdf="http://www.w3.org/1999/02/22-rdf-syntax-ns#"
   xmlns:svg="http://www.w3.org/2000/svg"
   xmlns="http://www.w3.org/2000/svg"
   xmlns:sodipodi="http://sodipodi.sourceforge.net/DTD/sodipodi-0.dtd"
   xmlns:inkscape="http://www.inkscape.org/namespaces/inkscape"
   version="1.1"
   id="Layer_1"
   x="0px"
   y="0px"
   width="950px"
   height="300px"
   viewBox="0 0 950 300"
   enable-background="new 0 0 950 300"
   xml:space="preserve"
   sodipodi:docname="Marca_021.svg"
   inkscape:version="1.0.2 (e86c870879, 2021-01-15)"><metadata
   id="metadata59"><rdf:RDF><cc:Work
       rdf:about=""><dc:format>image/svg+xml</dc:format><dc:type
         rdf:resource="http://purl.org/dc/dcmitype/StillImage" /><dc:title></dc:title></cc:Work></rdf:RDF></metadata><defs
   id="defs57" /><sodipodi:namedview
   pagecolor="#ffffff"
   bordercolor="#666666"
   borderopacity="1"
   objecttolerance="10"
   gridtolerance="10"
   guidetolerance="10"
   inkscape:pageopacity="0"
   inkscape:pageshadow="2"
   inkscape:window-width="1920"
   inkscape:window-height="1008"
   id="namedview55"
   showgrid="false"
   inkscape:zoom="1.2526316"
   inkscape:cx="475.39916"
   inkscape:cy="150"
   inkscape:window-x="0"
   inkscape:window-y="24"
   inkscape:window-maximized="1"
   inkscape:current-layer="Layer_1" />
<g
   id="g52"
   style="fill:#ffffff">
	<path
   fill="#FFFFFF"
   d="M373.511,55.046c21.143,0,32.709,7.731,32.709,27.869c0,11.947-3.238,17.96-11.566,23.233   c8.928,3.883,13.568,10.389,13.568,23.997c0,21.067-13.115,30.228-34.103,30.228h-41.814V55.046H373.511z M353.609,73.319v25.086   h18.969c8.335,0,12.034-4.339,12.034-12.688c0-8.667-4.152-12.399-12.183-12.399H353.609z M353.609,116.39v25.687h19.441   c8.792,0,13.58-2.63,13.58-13.012c0-8.664-5.096-12.675-13.58-12.675H353.609z"
   id="path2"
   style="fill:#ffffff" />
	<polygon
   fill="#FFFFFF"
   points="430.138,55.046 498.047,55.046 498.047,73.627 451.429,73.627 451.429,98.246 488.778,98.246    488.778,116.538 451.429,116.538 451.429,141.792 498.047,141.792 498.047,160.374 430.138,160.374  "
   id="polygon4"
   style="fill:#ffffff" />
	<path
   fill="#FFFFFF"
   d="M540.77,125.054v35.32h-21.279V55.046h40.725c23.918,0,37.049,10.678,37.049,34.691   c0,14.537-5.885,24.314-15.449,30.359l14.965,40.276h-23.277l-12.199-35.32H540.77z M560.215,73.319H540.77v33.466h19.762   c10.637,0,14.973-7.443,14.973-16.755C575.504,79.965,570.401,73.319,560.215,73.319"
   id="path6"
   style="fill:#ffffff" />
	<rect
   x="619.012"
   y="55.046"
   fill="#FFFFFF"
   width="21.299"
   height="105.327"
   id="rect8"
   style="fill:#ffffff" />
	<path
   fill="#FFFFFF"
   d="M729.94,74.248c0,0-21.752-2.486-30.688-2.486c-11.43,0-16.83,4.188-16.83,11.154   c0,6.654,4.166,9,21.779,14.557c22.664,7.279,29.613,13.632,29.613,31.14c0,22.925-15.586,33.61-36.264,33.61   c-14.354,0-35.031-4.804-35.031-4.804l2.17-16.572c0,0,20.678,2.795,31.631,2.795c11.406,0,16.355-5.424,16.355-13.64   c0-6.506-3.703-9.428-18.824-13.772c-23.617-6.83-32.562-14.869-32.562-31.76c0-21.844,14.506-31.296,35.801-31.296   c14.045,0,34.555,4.195,34.555,4.195L729.94,74.248z"
   id="path10"
   style="fill:#ffffff" />
	<path
   fill="#FFFFFF"
   d="M817.764,74.248c0,0-21.752-2.486-30.721-2.486c-11.398,0-16.822,4.188-16.822,11.154   c0,6.654,4.18,9,21.764,14.557c22.68,7.279,29.621,13.632,29.621,31.14c0,22.925-15.586,33.61-36.252,33.61   c-14.35,0-35.023-4.804-35.023-4.804l2.143-16.572c0,0,20.67,2.795,31.631,2.795c11.432,0,16.363-5.424,16.363-13.64   c0-6.506-3.707-9.428-18.832-13.772c-23.586-6.83-32.537-14.869-32.537-31.76c0-21.844,14.504-31.296,35.795-31.296   c14.029,0,34.551,4.195,34.551,4.195L817.764,74.248z"
   id="path12"
   style="fill:#ffffff" />
	<path
   fill="#FFFFFF"
   d="M837.969,108.318c0-35.628,10.502-55.146,43.508-55.146c33.014,0,43.523,19.518,43.523,55.146   c0,35.632-10.51,53.905-43.523,53.905C848.471,162.223,837.969,143.951,837.969,108.318 M903.084,108.318   c0-24.326-4.328-36.557-21.607-36.557c-17.283,0-21.596,12.231-21.596,36.557c0,24.314,4.312,35.324,21.596,35.324   C898.756,143.642,903.084,132.632,903.084,108.318"
   id="path14"
   style="fill:#ffffff" />
	<g
   id="g42"
   style="fill:#ffffff">
		<polygon
   fill="#FFFFFF"
   points="333.475,188.586 344.905,188.586 360.983,236.774 377.062,188.586 388.452,188.586     388.452,245.59 382.15,245.59 382.15,195.333 381.001,195.333 364.502,243.532 357.448,243.532 340.949,195.333 339.796,195.333     339.796,245.59 333.475,245.59   "
   id="polygon16"
   style="fill:#ffffff" />
		<path
   fill="#FFFFFF"
   d="M442.977,204.414v41.177h-6.158v-2.883c0,0-6.157,3.707-12.155,3.707    c-11.479,0-13.869-5.345-13.869-20.502v-21.499h6.15v21.406c0,11.367,1.001,15.091,8.632,15.091    c6.085,0,11.242-3.056,11.242-3.056v-33.441H442.977z"
   id="path18"
   style="fill:#ffffff" />
		<path
   fill="#FFFFFF"
   d="M464.645,245.59v-41.177h6.069v2.874c0,0,6.65-3.703,12.728-3.703c11.326,0,13.877,5.593,13.877,20.267    v21.739h-6.07v-21.576c0-10.882-1.244-14.908-8.879-14.908c-5.895,0-11.559,3.042-11.559,3.042v33.442H464.645z"
   id="path20"
   style="fill:#ffffff" />
		<path
   fill="#FFFFFF"
   d="M518.573,187.935h6.15v7.173h-6.15V187.935z M518.573,204.414h6.15v41.177h-6.15V204.414z"
   id="path22"
   style="fill:#ffffff" />
		<path
   fill="#FFFFFF"
   d="M572.918,204.826l-0.248,5.021c0,0-6.562-0.74-9.689-0.74c-9.432,0-11.979,4.115-11.979,15.165    c0,12.183,1.883,16.64,12.055,16.64c3.123,0,9.686-0.753,9.686-0.753l0.26,5.101c0,0-7.631,1.156-11.414,1.156    c-13.035,0-16.896-5.997-16.896-22.144c0-14.917,4.822-20.687,17.064-20.687C565.512,203.584,572.918,204.826,572.918,204.826"
   id="path24"
   style="fill:#ffffff" />
		<path
   fill="#FFFFFF"
   d="M592.043,187.935h6.148v7.173h-6.148V187.935z M592.043,204.414h6.148v41.177h-6.148V204.414z"
   id="path26"
   style="fill:#ffffff" />
		<path
   fill="#FFFFFF"
   d="M619.872,204.414h6.078v2.97c0,0,6.234-3.799,12.305-3.799c10.332,0,14.867,6.337,14.867,20.923    c0,16.143-5.271,21.907-17.912,21.907c-3.857,0-8.029-0.64-9.174-0.896v18.36h-6.164V204.414z M626.036,212.396v27.762    c1.047,0.167,5.316,0.912,8.842,0.912c9.041,0,11.988-4.7,11.988-16.562c0-11.286-3.527-15.401-9.525-15.401    C631.772,209.106,626.036,212.396,626.036,212.396"
   id="path28"
   style="fill:#ffffff" />
		<path
   fill="#FFFFFF"
   d="M701.956,237.94c0.156,2.385,2.133,3.299,4.764,3.614l-0.248,4.86c-4.359,0-7.314-0.824-9.77-3.295    c0,0-7.387,3.295-14.781,3.295c-7.455,0-11.574-4.271-11.574-12.595c0-7.907,4.119-11.371,12.561-12.211l12.891-1.214v-3.551    c0-5.777-2.471-7.826-7.395-7.826c-5.738,0-15.514,1.072-15.514,1.072l-0.24-4.692c0,0,9.039-1.813,16.086-1.813    c9.277,0,13.221,4.292,13.221,13.26V237.94z M683.659,226.233c-5.014,0.501-6.99,2.891-6.99,7.41c0,4.781,2.041,7.596,6.238,7.596    c6.08,0,12.891-2.574,12.891-2.574V225.08L683.659,226.233z"
   id="path30"
   style="fill:#ffffff" />
		<rect
   x="724.438"
   y="186.441"
   fill="#FFFFFF"
   width="6.158"
   height="59.149"
   id="rect32"
   style="fill:#ffffff" />
		<path
   fill="#FFFFFF"
   d="M752.768,187.935h6.158v7.173h-6.158V187.935z M752.768,204.414h6.158v41.177h-6.158V204.414z"
   id="path34"
   style="fill:#ffffff" />
		<path
   fill="#FFFFFF"
   d="M812.114,245.59h-6.084v-2.795c0,0-6.322,3.619-12.465,3.619c-8.047,0-14.773-3.295-14.773-21.103    c0-14.473,4.66-21.728,17.145-21.728c3.531,0,8.871,0.829,10.094,1.064v-18.208h6.084V245.59z M806.03,237.855v-27.934    c-1.303-0.235-6.402-0.984-9.762-0.984c-8.611,0-11.17,5.688-11.17,16.375c0,13.353,4.359,15.599,9.191,15.599    C800.12,240.911,806.03,237.855,806.03,237.855"
   id="path36"
   style="fill:#ffffff" />
		<path
   fill="#FFFFFF"
   d="M862.844,237.94c0.148,2.385,2.135,3.299,4.748,3.614l-0.236,4.86c-4.363,0-7.311-0.824-9.781-3.295    c0,0-7.395,3.295-14.764,3.295c-7.477,0-11.592-4.271-11.592-12.595c0-7.907,4.115-11.371,12.576-12.211l12.891-1.214v-3.551    c0-5.777-2.469-7.826-7.395-7.826c-5.744,0-15.506,1.072-15.506,1.072l-0.256-4.692c0,0,9.023-1.813,16.094-1.813    c9.273,0,13.221,4.292,13.221,13.26V237.94z M844.532,226.233c-5.004,0.501-6.982,2.891-6.982,7.41    c0,4.781,2.057,7.596,6.246,7.596c6.068,0,12.891-2.574,12.891-2.574V225.08L844.532,226.233z"
   id="path38"
   style="fill:#ffffff" />
		<path
   fill="#FFFFFF"
   d="M916.364,245.59h-6.08v-2.795c0,0-6.326,3.619-12.473,3.619c-8.047,0-14.785-3.295-14.785-21.103    c0-14.473,4.689-21.728,17.15-21.728c3.537,0,8.873,0.829,10.107,1.064v-18.208h6.08V245.59z M910.284,237.855v-27.934    c-1.314-0.235-6.402-0.984-9.773-0.984c-8.615,0-11.15,5.688-11.15,16.375c0,13.353,4.336,15.599,9.18,15.599    C904.366,240.911,910.284,237.855,910.284,237.855"
   id="path40"
   style="fill:#ffffff" />
	</g>
	<path
   fill="#FFFFFF"
   d="M267.407,189.804"
   id="path44"
   style="fill:#ffffff" />
	<g
   id="g50"
   style="fill:#ffffff">
		<polygon
   fill="#59AADB"
   points="25,23.97 25,24.019 25,34.364 25,143.915 25,145.884 25,149.488 25,150.003 25,264.815 25,280.93     25,281.026 25,286.912 49.258,286.912 55.319,13.048 25,13.048   "
   id="polygon46"
   style="fill:#ffffff" />
		<path
   fill="#59AADB"
   d="M246.355,205.811H118.561l-0.329-12.196h127.339c-0.088-0.531-0.167-1.128-0.272-1.661    c-0.46-2.955-1.089-5.789-1.882-8.468H117.988l-0.336-12.166h120.689c-1.39-2.471-2.971-4.793-4.737-6.942    c-7.975-9.717-18.437-16.335-31.368-19.838c5.037-3.788,9.357-8.729,13.028-14.886c6.149-10.302,9.16-22.052,9.16-35.937    c0-0.064,0-0.088,0-0.12c0-0.064,0-0.128,0-0.181c0-27.152-8.199-46.638-25.086-59.578    c-15.975-12.283-41.005-19.226-74.503-20.727c-2.138-0.024-4.28-0.064-6.466-0.064c-0.792,0-1.597,0.04-2.398,0.04v-0.04H88.674    l6.061,273.863h6.206c1.738,0.016,3.463,0.04,5.133,0.04h0.032h0.052c33.747,0,60.975-3.079,81.678-9.252    c20.695-6.198,35.684-15.166,44.896-26.961c0.064-0.111,0.152-0.199,0.208-0.296h-0.565H119.733l-0.324-12.175h120.376h0.5    c1.453-3.244,2.679-6.603,3.64-10.153h-0.437H119.141l-0.312-12.163h126.979h0.296c0.292-2.914,0.445-5.918,0.445-8.984    c0-0.396,0-0.753,0-1.156H246.355z"
   id="path48"
   style="fill:#ffffff" />
	</g>
</g>
</svg>
